<svg id="Layer_1" data-name="Layer 1" xmlns="http://www.w3.org/2000/svg" width="541.948" height="541.948" viewBox="0 0 541.948 541.948"><defs><style>.cls-1{fill:#00aeef;}</style></defs><title>WA_logo_vert copy 3</title><path class="cls-1" d="M270.974,55.974A215,215,0,0,1,423,423,215,215,0,1,1,118.946,118.946,213.592,213.592,0,0,1,270.974,55.974m0-45c-143.594,0-260,116.406-260,260s116.406,260,260,260,260-116.406,260-260-116.406-260-260-260Z"/><path class="cls-1" d="M407.591,161.5a29.986,29.986,0,0,0-26.074,15.226,1.6,1.6,0,0,1-.161.321c-1.333,2.153-2.7,6.779-3.294,8.975l-10,38.773.018.006s-6.621,23.11.288,39.473c.528,1.117,1.065,2.23,1.6,3.342.13.266.26.526.369.77q3.221,6.714,6.435,13.428c6.965,14.553-15.6,25.358-22.576,10.805q-1.172-2.452-2.348-4.9l-.005.019L297.988,180.1a29.937,29.937,0,0,0-53.956,0l-53.878,107.68-.005-.02q-1.164,2.425-2.318,4.856c-6.972,14.553-29.542,3.747-22.571-10.805q3.115-6.514,6.231-13.015c.261-.624.576-1.3.993-2.077l.982-2.061c6.05-13.806,2.225-32.656.874-38.241l-.412-1.612,0-.009h0l-9.992-38.765c-.469-1.691-2.081-7.224-3.611-9.624-.009-.014-.014-.029-.023-.04a29.925,29.925,0,0,0-54.66,23.332l45.748,177.509c.048.166,1.764,6.613,3.481,9.672l.014-.005a29.6,29.6,0,0,0,6.846,8.485A29.934,29.934,0,0,0,208.8,384.275l12.287-24.555,4.852-9.063c8.619-16.085,25.929-26.082,45.183-26.082,17.978,0,34.743,9.044,43.75,23.6l1.484,2.4,16.833,33.643c.028.062.052.113.067.153.1.225.2.446.3.666l.083.185c.071.169.153.332.233.51.1.2.2.393.3.589l.1.2c.09.178.186.355.278.523.1.19.215.383.332.574l.1.183c.106.171.207.349.317.523s.225.358.344.541l.068.1c.131.206.264.408.38.57.1.16.216.318.329.471l.078.11c.147.211.306.425.493.67.111.145.227.292.335.437l.068.072c.159.2.321.408.466.582.082.092.158.189.244.293s.167.187.258.279c.167.193.336.382.522.584.169.18.337.355.528.554.153.155.307.307.442.439.216.212.431.419.642.611.125.12.259.239.378.344.255.227.511.446.758.661l.308.246c.277.225.56.447.849.665l.244.183c.315.234.636.462.954.678l.23.152c.326.218.656.432.944.607.1.063.2.122.322.192.311.183.618.365.948.543.11.063.22.12.388.205.292.155.58.309.863.442.164.083.331.156.5.236l.149.066c.212.1.422.193.633.289.249.1.5.2.763.306l.091.041c.153.059.3.119.442.169.3.116.608.22.909.324l.447.15c.331.107.671.207,1.04.312l.341.095c.335.093.675.177,1.055.264l.349.08c.332.073.675.143,1.016.2.154.028.3.058.443.082.306.047.608.095.91.134.21.028.418.051.589.076.274.031.547.057.805.079.236.022.475.036.734.056.225.014.45.026.684.035.264.013.534.018.831.022h-.025c.25.011.484.011.743,0,.278,0,.556-.012.844-.025l.571-.023c.3-.02.595-.04.9-.068l.1-.008c.168-.015.326-.034.494-.048.264-.028.523-.062.844-.1l.1-.014c.181-.023.369-.048.528-.076.248-.038.5-.084.775-.14l.1-.014c.2-.043.4-.076.579-.113.216-.045.432-.095.653-.148l.2-.046c.206-.047.4-.095.585-.143.2-.051.394-.11.589-.168l.255-.069c.2-.056.383-.112.571-.17s.4-.131.593-.2l.24-.076c.185-.069.37-.131.537-.193.205-.076.411-.16.622-.239l.247-.1c.161-.065.329-.13.5-.2.206-.089.414-.185.618-.278l.2-.09c.169-.076.337-.153.524-.244s.387-.2.585-.3l.171-.086c.193-.1.38-.2.528-.281.2-.107.383-.217.575-.327l.154-.091c.192-.11.383-.223.59-.344.153-.1.312-.2.459-.3l.139-.089c.21-.141.426-.276.633-.419.172-.121.345-.243.513-.364.236-.17.465-.337.7-.517.145-.111.284-.221.48-.376.22-.175.431-.346.627-.509.076-.069.164-.135.254-.214s.207-.181.278-.249c.2-.18.412-.364.6-.546.173-.165.349-.326.531-.506.158-.157.321-.314.476-.48.2-.2.4-.409.588-.616.131-.133.25-.267.374-.411.211-.236.423-.475.624-.719l.273-.336c.225-.278.445-.556.638-.81l.234-.318c.216-.289.428-.586.652-.92l.178-.264c.205-.312.4-.613.571-.892l.236-.394c.161-.28.329-.563.487-.855a.133.133,0,0,0,.02-.034l.014,0c1.726-3.11,3.457-9.647,3.457-9.647l.023.016,45.753-177.534A29.931,29.931,0,0,0,407.591,161.5ZM251.86,279.288l19.124-38.209,19.109,38.189C279.526,274.357,262.411,274.3,251.86,279.288Z"/></svg>